<svg viewBox="0 0 103 33" fill="none" xmlns="http://www.w3.org/2000/svg"><g clip-path="url(#clip0_989_3569)"><path fill-rule="evenodd" clip-rule="evenodd" d="M19.2406 6.16891C18.5007 5.47789 18.5306 4.28292 18.5306 3.27052C18.5306 1.85515 17.3832 0.707764 15.9679 0.707764C14.5525 0.707764 13.4051 1.85515 13.4051 3.27052C13.4051 4.6859 14.5525 5.83328 15.9679 5.83328C16.8963 5.83328 17.9527 5.80827 18.6312 6.44199L19.4036 7.16333C20.1232 7.8354 20.108 8.98857 20.108 9.97319C20.108 11.3886 21.2554 12.5359 22.6708 12.5359C24.0861 12.5359 25.2335 11.3886 25.2335 9.97319C25.2335 8.55781 24.0861 7.41043 22.6708 7.41043C21.7118 7.41043 20.6131 7.45082 19.9123 6.79624L19.2406 6.16891ZM12.7321 12.7802C13.4321 12.0938 13.4051 10.9536 13.4051 9.97319C13.4051 8.55781 14.5525 7.41043 15.9679 7.41043C17.3832 7.41043 18.5306 8.55781 18.5306 9.97319C18.5306 10.9161 18.5197 12.0014 19.1898 12.6648L20.0009 13.4677C20.665 14.1252 21.7362 14.1129 22.6708 14.1129C24.0861 14.1129 25.2335 15.2603 25.2335 16.6756C25.2335 18.091 24.0861 19.2384 22.6708 19.2384C21.2554 19.2384 20.108 18.091 20.108 16.6756C20.108 15.6663 20.1534 14.4848 19.4361 13.7747L18.8493 13.1937C18.1373 12.4888 16.9698 12.5359 15.9679 12.5359C15.0032 12.5359 13.8907 12.5061 13.202 13.1815L12.5012 13.8686C11.8012 14.555 11.8282 15.6952 11.8282 16.6756C11.8282 18.091 10.6808 19.2384 9.26542 19.2384C7.85005 19.2384 6.70266 18.091 6.70266 16.6756C6.70266 15.2603 7.85005 14.1129 9.26542 14.1129C10.2301 14.1129 11.3426 14.1427 12.0314 13.4673L12.7321 12.7802ZM9.26542 12.5359C8.3007 12.5359 7.18812 12.506 6.4993 13.1815L5.79855 13.8686C5.09855 14.555 5.12552 15.6952 5.12552 16.6756C5.12552 18.091 3.97813 19.2384 2.56276 19.2384C1.14739 19.2384 0 18.091 0 16.6756C0 15.2603 1.14739 14.1129 2.56276 14.1129C3.52742 14.1129 4.63992 14.1427 5.3287 13.4673L6.02964 12.78C6.7296 12.0936 6.70266 10.9535 6.70266 9.97319C6.70266 8.55781 7.85005 7.41043 9.26542 7.41043C10.6808 7.41043 11.8282 8.55781 11.8282 9.97319C11.8282 11.3886 10.6808 12.5359 9.26542 12.5359ZM26.4599 19.8912C27.1819 19.1832 28.3617 19.2384 29.373 19.2384C30.7883 19.2384 31.9357 18.091 31.9357 16.6756C31.9357 15.2603 30.7883 14.1129 29.373 14.1129C27.9576 14.1129 26.8102 15.2603 26.8102 16.6756C26.8102 17.6091 26.814 18.682 26.1475 19.3355L25.2856 20.1806C24.6315 20.8221 23.5869 20.8158 22.6708 20.8158C21.2554 20.8158 20.108 21.9631 20.108 23.3785C20.108 24.7939 21.2554 25.9413 22.6708 25.9413C24.0861 25.9413 25.2335 24.7939 25.2335 23.3785C25.2335 22.3526 25.1814 21.1449 25.9139 20.4265L26.4599 19.8912ZM15.9679 19.2384C14.9566 19.2384 13.7768 19.1832 13.0548 19.8912L12.5086 20.4268C11.7761 21.145 11.8282 22.3526 11.8282 23.3785C11.8282 24.3739 11.7876 25.5332 12.4914 26.2371L13.1091 26.8547C13.813 27.5586 14.9724 27.518 15.9679 27.518C17.3832 27.518 18.5306 28.6654 18.5306 30.0807C18.5306 31.4961 17.3832 32.6435 15.9679 32.6435C14.5525 32.6435 13.4051 31.4961 13.4051 30.0807C13.4051 29.1313 13.4219 28.038 12.7505 27.3666L11.9798 26.5959C11.3084 25.9244 10.215 25.9413 9.26542 25.9413C7.85005 25.9413 6.70266 24.7939 6.70266 23.3785C6.70266 21.9631 7.85005 20.8158 9.26542 20.8158C10.1817 20.8158 11.2263 20.8221 11.8805 20.1806L12.7424 19.3355C13.4089 18.682 13.4051 17.6091 13.4051 16.6756C13.4051 15.2603 14.5525 14.1129 15.9679 14.1129C17.3832 14.1129 18.5306 15.2603 18.5306 16.6756C18.5306 18.091 17.3832 19.2384 15.9679 19.2384ZM24.3547 3.2909C24.3547 4.20953 23.61 4.95423 22.6914 4.95423C21.7727 4.95423 21.028 4.20953 21.028 3.2909C21.028 2.37227 21.7727 1.62757 22.6914 1.62757C23.61 1.62757 24.3547 2.37227 24.3547 3.2909ZM15.9679 25.9413C17.3832 25.9413 18.5306 24.7939 18.5306 23.3785C18.5306 21.9631 17.3832 20.8158 15.9679 20.8158C14.5525 20.8158 13.4051 21.9631 13.4051 23.3785C13.4051 24.7939 14.5525 25.9413 15.9679 25.9413ZM9.14867 4.81842C10.0409 4.81842 10.7642 4.09512 10.7642 3.20289C10.7642 2.31065 10.0409 1.58735 9.14867 1.58735C8.25644 1.58735 7.53314 2.31065 7.53314 3.20289C7.53314 4.09512 8.25644 4.81842 9.14867 4.81842ZM4.24647 9.99357C4.24647 10.9122 3.50177 11.6569 2.58314 11.6569C1.66451 11.6569 0.919808 10.9122 0.919808 9.99357C0.919808 9.07493 1.66451 8.33024 2.58314 8.33024C3.50177 8.33024 4.24647 9.07493 4.24647 9.99357ZM10.7642 30.1487C10.7642 31.0409 10.0409 31.7642 9.14867 31.7642C8.25644 31.7642 7.53314 31.0409 7.53314 30.1487C7.53314 29.2564 8.25644 28.5331 9.14867 28.5331C10.0409 28.5331 10.7642 29.2564 10.7642 30.1487ZM22.6914 31.7647C23.61 31.7647 24.3547 31.02 24.3547 30.1013C24.3547 29.1827 23.61 28.438 22.6914 28.438C21.7727 28.438 21.028 29.1827 21.028 30.1013C21.028 31.02 21.7727 31.7647 22.6914 31.7647ZM4.16488 23.2322C4.16488 24.0973 3.46357 24.7986 2.59846 24.7986C1.73335 24.7986 1.03203 24.0973 1.03203 23.2322C1.03203 22.3671 1.73335 21.6658 2.59846 21.6658C3.46357 21.6658 4.16488 22.3671 4.16488 23.2322ZM29.4408 25.1327C30.4371 25.1327 31.2447 24.3251 31.2447 23.3288C31.2447 22.3325 30.4371 21.5249 29.4408 21.5249C28.4445 21.5249 27.6369 22.3325 27.6369 23.3288C27.6369 24.3251 28.4445 25.1327 29.4408 25.1327ZM29.2744 11.5991C30.237 11.5991 31.0173 10.8188 31.0173 9.85621C31.0173 8.89365 30.237 8.11334 29.2744 8.11334C28.3119 8.11334 27.5316 8.89365 27.5316 9.85621C27.5316 10.8188 28.3119 11.5991 29.2744 11.5991Z" fill="currentColor"></path><path d="M38.5669 25.4026V22.7118H44.6659C45.216 22.7118 45.6465 22.5444 45.9575 22.2096C46.2923 21.8747 46.4597 21.4442 46.4597 20.918V0.77356H49.3299V21.2768C49.3299 22.5683 48.9591 23.5848 48.2177 24.3263C47.5002 25.0438 46.4358 25.4026 45.0247 25.4026H38.5669Z" fill="currentColor"></path><path d="M94.3896 25.7614C92.7872 25.7614 91.3282 25.3668 90.0127 24.5775C88.6972 23.7882 87.6568 22.688 86.8914 21.2768C86.15 19.8657 85.7793 18.2512 85.7793 16.4335C85.7793 14.6158 86.15 13.0013 86.8914 11.5902C87.6568 10.179 88.6972 9.0788 90.0127 8.28952C91.3282 7.50024 92.7872 7.10559 94.3896 7.10559C95.9921 7.10559 97.4511 7.50024 98.7666 8.28952C100.082 9.0788 101.111 10.179 101.852 11.5902C102.617 13.0013 103 14.6158 103 16.4335C103 18.2512 102.617 19.8657 101.852 21.2768C101.111 22.688 100.082 23.7882 98.7666 24.5775C97.4511 25.3668 95.9921 25.7614 94.3896 25.7614ZM94.3896 23.2501C95.4659 23.2501 96.4585 22.975 97.3674 22.4249C98.2763 21.8509 98.9938 21.0496 99.52 20.0212C100.046 18.9688 100.309 17.7729 100.309 16.4335C100.309 15.0941 100.046 13.9102 99.52 12.8817C98.9938 11.8293 98.2763 11.0281 97.3674 10.478C96.4585 9.90397 95.4659 9.61695 94.3896 9.61695C93.3133 9.61695 92.3208 9.90397 91.4119 10.478C90.503 11.0281 89.7855 11.8293 89.2593 12.8817C88.7331 13.9102 88.47 15.0941 88.47 16.4335C88.47 17.7729 88.7331 18.9688 89.2593 20.0212C89.7855 21.0496 90.503 21.8509 91.4119 22.4249C92.3208 22.975 93.3133 23.2501 94.3896 23.2501Z" fill="currentColor"></path><path d="M83.0234 7.46411H85.8935L77.8213 30.0664C77.5103 30.9274 77.1037 31.5612 76.6015 31.9678C76.0992 32.3744 75.3697 32.5777 74.413 32.5777H70.8253V30.0664H74.2336C74.8315 30.0664 75.2501 29.7076 75.4893 28.9901L76.2068 26.8375L68.8521 7.46411H71.7222L77.2831 22.3529H78.0006L83.0234 7.46411Z" fill="currentColor"></path><path d="M58.5771 25.7612C57.2138 25.7612 55.9821 25.4502 54.8819 24.8284C53.8056 24.1826 52.9565 23.2857 52.3346 22.1376C51.7128 20.9896 51.4018 19.6861 51.4018 18.2271V7.46411H54.0926V18.2271C54.0926 19.1599 54.3078 20.009 54.7383 20.7743C55.1689 21.5397 55.7548 22.1496 56.4963 22.604C57.2377 23.0345 58.0509 23.2498 58.9359 23.2498C59.8687 23.2498 60.7297 23.0226 61.519 22.5681C62.3322 22.0898 62.966 21.4679 63.4205 20.7026C63.8988 19.9372 64.138 19.112 64.138 18.2271V7.46411H66.8288V25.4024H64.4968L64.138 23.4292H63.9586C63.4564 24.0511 62.7269 24.6012 61.7702 25.0795C60.8374 25.5339 59.773 25.7612 58.5771 25.7612Z" fill="currentColor"></path></g><defs><clipPath id="clip0_989_3569"><rect width="103" height="31.9817" fill="currentColor" transform="translate(0 0.707764)"></rect></clipPath></defs></svg>