<svg width="20" height="20" viewBox="0 0 20 20" fill="none" xmlns="http://www.w3.org/2000/svg">
<path fill-rule="evenodd" clip-rule="evenodd" d="M11.5817 3.30979C11.1363 2.89099 11.1543 2.16676 11.1543 1.55319C11.1543 0.695385 10.4637 0 9.61175 0C8.75976 0 8.06909 0.695385 8.06909 1.55319C8.06909 2.41099 8.75976 3.10637 9.61175 3.10637C10.1706 3.10637 10.8065 3.09122 11.2149 3.47529L11.6798 3.91246C12.113 4.31978 12.1038 5.01867 12.1038 5.61541C12.1038 6.47323 12.7945 7.16857 13.6465 7.16857C14.4984 7.16857 15.1891 6.47323 15.1891 5.61541C15.1891 4.7576 14.4984 4.06222 13.6465 4.06222C13.0692 4.06222 12.4079 4.0867 11.986 3.68999L11.5817 3.30979ZM7.66398 7.31663C8.08534 6.90063 8.06909 6.2096 8.06909 5.61541C8.06909 4.7576 8.75976 4.06222 9.61175 4.06222C10.4637 4.06222 11.1543 4.7576 11.1543 5.61541C11.1543 6.18687 11.1478 6.84463 11.5511 7.24669L12.0394 7.73329C12.4391 8.13178 13.0839 8.12432 13.6465 8.12432C14.4984 8.12432 15.1891 8.81972 15.1891 9.67748C15.1891 10.5353 14.4984 11.2307 13.6465 11.2307C12.7945 11.2307 12.1038 10.5353 12.1038 9.67748C12.1038 9.06578 12.1312 8.34972 11.6994 7.91935L11.3462 7.56723C10.9176 7.14002 10.2148 7.16857 9.61175 7.16857C9.03105 7.16857 8.36139 7.15051 7.94684 7.55984L7.52499 7.97626C7.10363 8.39226 7.11989 9.08329 7.11989 9.67748C7.11989 10.5353 6.42922 11.2307 5.57724 11.2307C4.72527 11.2307 4.03461 10.5353 4.03461 9.67748C4.03461 8.81972 4.72527 8.12432 5.57724 8.12432C6.15792 8.12432 6.82758 8.14239 7.2422 7.73305L7.66398 7.31663ZM5.57724 7.16857C4.99654 7.16857 4.32683 7.15045 3.9122 7.55984L3.49039 7.97626C3.06903 8.39226 3.08526 9.08329 3.08526 9.67748C3.08526 10.5353 2.3946 11.2307 1.54263 11.2307C0.690662 11.2307 0 10.5353 0 9.67748C0 8.81972 0.690662 8.12432 1.54263 8.12432C2.1233 8.12432 2.79296 8.14239 3.20757 7.73305L3.62949 7.31651C4.05083 6.90051 4.03461 6.20954 4.03461 5.61541C4.03461 4.7576 4.72527 4.06222 5.57724 4.06222C6.42922 4.06222 7.11989 4.7576 7.11989 5.61541C7.11989 6.47323 6.42922 7.16857 5.57724 7.16857ZM15.9273 11.6263C16.3619 11.1972 17.0721 11.2307 17.6808 11.2307C18.5328 11.2307 19.2234 10.5353 19.2234 9.67748C19.2234 8.81972 18.5328 8.12432 17.6808 8.12432C16.8288 8.12432 16.1382 8.81972 16.1382 9.67748C16.1382 10.2432 16.1405 10.8935 15.7393 11.2895L15.2205 11.8017C14.8267 12.1905 14.1979 12.1867 13.6465 12.1867C12.7945 12.1867 12.1038 12.882 12.1038 13.7398C12.1038 14.5977 12.7945 15.2931 13.6465 15.2931C14.4984 15.2931 15.1891 14.5977 15.1891 13.7398C15.1891 13.1181 15.1577 12.3861 15.5987 11.9507L15.9273 11.6263ZM9.61175 11.2307C9.003 11.2307 8.29283 11.1972 7.85823 11.6263L7.52945 11.9509C7.08853 12.3862 7.11989 13.1181 7.11989 13.7398C7.11989 14.3431 7.09545 15.0457 7.5191 15.4723L7.89091 15.8466C8.31462 16.2732 9.01251 16.2486 9.61175 16.2486C10.4637 16.2486 11.1543 16.944 11.1543 17.8018C11.1543 18.6596 10.4637 19.355 9.61175 19.355C8.75976 19.355 8.06909 18.6596 8.06909 17.8018C8.06909 17.2264 8.0792 16.5638 7.67506 16.1569L7.21114 15.6898C6.807 15.2828 6.14884 15.2931 5.57724 15.2931C4.72527 15.2931 4.03461 14.5977 4.03461 13.7398C4.03461 12.882 4.72527 12.1867 5.57724 12.1867C6.12879 12.1867 6.75758 12.1905 7.15137 11.8017L7.67018 11.2895C8.07138 10.8935 8.06909 10.2432 8.06909 9.67748C8.06909 8.81972 8.75976 8.12432 9.61175 8.12432C10.4637 8.12432 11.1543 8.81972 11.1543 9.67748C11.1543 10.5353 10.4637 11.2307 9.61175 11.2307ZM14.6601 1.56554C14.6601 2.12228 14.2118 2.57362 13.6589 2.57362C13.1059 2.57362 12.6576 2.12228 12.6576 1.56554C12.6576 1.00879 13.1059 0.557458 13.6589 0.557458C14.2118 0.557458 14.6601 1.00879 14.6601 1.56554ZM9.61175 15.2931C10.4637 15.2931 11.1543 14.5977 11.1543 13.7398C11.1543 12.882 10.4637 12.1867 9.61175 12.1867C8.75976 12.1867 8.06909 12.882 8.06909 13.7398C8.06909 14.5977 8.75976 15.2931 9.61175 15.2931ZM5.50697 2.49131C6.04404 2.49131 6.47942 2.05294 6.47942 1.5122C6.47942 0.971446 6.04404 0.533082 5.50697 0.533082C4.9699 0.533082 4.53451 0.971446 4.53451 1.5122C4.53451 2.05294 4.9699 2.49131 5.50697 2.49131ZM2.55613 5.62776C2.55613 6.18451 2.10786 6.63584 1.5549 6.63584C1.00194 6.63584 0.553671 6.18451 0.553671 5.62776C0.553671 5.07101 1.00194 4.61968 1.5549 4.61968C2.10786 4.61968 2.55613 5.07101 2.55613 5.62776ZM6.47942 17.843C6.47942 18.3837 6.04404 18.8221 5.50697 18.8221C4.9699 18.8221 4.53451 18.3837 4.53451 17.843C4.53451 17.3022 4.9699 16.8638 5.50697 16.8638C6.04404 16.8638 6.47942 17.3022 6.47942 17.843ZM13.6589 18.8224C14.2118 18.8224 14.6601 18.371 14.6601 17.8143C14.6601 17.2575 14.2118 16.8062 13.6589 16.8062C13.1059 16.8062 12.6576 17.2575 12.6576 17.8143C12.6576 18.371 13.1059 18.8224 13.6589 18.8224ZM2.50701 13.6512C2.50701 14.1755 2.08487 14.6005 1.56412 14.6005C1.04338 14.6005 0.621222 14.1755 0.621222 13.6512C0.621222 13.1269 1.04338 12.7018 1.56412 12.7018C2.08487 12.7018 2.50701 13.1269 2.50701 13.6512ZM17.7216 14.803C18.3214 14.803 18.8075 14.3135 18.8075 13.7097C18.8075 13.1059 18.3214 12.6164 17.7216 12.6164C17.1219 12.6164 16.6358 13.1059 16.6358 13.7097C16.6358 14.3135 17.1219 14.803 17.7216 14.803ZM17.6215 6.60081C18.2009 6.60081 18.6706 6.1279 18.6706 5.54451C18.6706 4.96114 18.2009 4.48823 17.6215 4.48823C17.0421 4.48823 16.5724 4.96114 16.5724 5.54451C16.5724 6.1279 17.0421 6.60081 17.6215 6.60081Z" fill="white"/>
</svg>
