<svg width="62" height="20" viewBox="0 0 62 20" fill="none" xmlns="http://www.w3.org/2000/svg">
<g clip-path="url(#clip0_10_1792)">
<mask id="mask0_10_1792" style="mask-type:luminance" maskUnits="userSpaceOnUse" x="0" y="0" width="62" height="20">
<path d="M62 0.428711H0V19.8116H62V0.428711Z" fill="white"/>
</mask>
<g mask="url(#mask0_10_1792)">
<path fill-rule="evenodd" clip-rule="evenodd" d="M11.5817 3.7385C11.1363 3.3197 11.1543 2.59547 11.1543 1.9819C11.1543 1.1241 10.4637 0.428711 9.61175 0.428711C8.75976 0.428711 8.06909 1.1241 8.06909 1.9819C8.06909 2.8397 8.75976 3.53508 9.61175 3.53508C10.1706 3.53508 10.8065 3.51993 11.2149 3.904L11.6798 4.34117C12.113 4.74849 12.1038 5.44738 12.1038 6.04412C12.1038 6.90194 12.7945 7.59728 13.6465 7.59728C14.4984 7.59728 15.1891 6.90194 15.1891 6.04412C15.1891 5.18631 14.4984 4.49093 13.6465 4.49093C13.0692 4.49093 12.4079 4.51541 11.986 4.1187L11.5817 3.7385ZM7.66398 7.74534C8.08534 7.32934 8.06909 6.63831 8.06909 6.04412C8.06909 5.18631 8.75976 4.49093 9.61175 4.49093C10.4637 4.49093 11.1543 5.18631 11.1543 6.04412C11.1543 6.61558 11.1478 7.27334 11.5511 7.6754L12.0394 8.162C12.4391 8.56049 13.0839 8.55304 13.6465 8.55304C14.4984 8.55304 15.1891 9.24843 15.1891 10.1062C15.1891 10.964 14.4984 11.6594 13.6465 11.6594C12.7945 11.6594 12.1038 10.964 12.1038 10.1062C12.1038 9.49449 12.1312 8.77843 11.6994 8.34807L11.3462 7.99594C10.9176 7.56873 10.2148 7.59728 9.61175 7.59728C9.03105 7.59728 8.36139 7.57922 7.94684 7.98855L7.52499 8.40497C7.10363 8.82097 7.11989 9.512 7.11989 10.1062C7.11989 10.964 6.42922 11.6594 5.57724 11.6594C4.72527 11.6594 4.03461 10.964 4.03461 10.1062C4.03461 9.24843 4.72527 8.55304 5.57724 8.55304C6.15792 8.55304 6.82758 8.5711 7.2422 8.16176L7.66398 7.74534ZM5.57724 7.59728C4.99654 7.59728 4.32683 7.57916 3.9122 7.98855L3.49039 8.40497C3.06903 8.82097 3.08526 9.512 3.08526 10.1062C3.08526 10.964 2.3946 11.6594 1.54263 11.6594C0.690662 11.6594 0 10.964 0 10.1062C0 9.24843 0.690662 8.55304 1.54263 8.55304C2.1233 8.55304 2.79296 8.5711 3.20757 8.16176L3.62949 7.74522C4.05083 7.32922 4.03461 6.63825 4.03461 6.04412C4.03461 5.18631 4.72527 4.49093 5.57724 4.49093C6.42922 4.49093 7.11989 5.18631 7.11989 6.04412C7.11989 6.90194 6.42922 7.59728 5.57724 7.59728ZM15.9273 12.055C16.3619 11.6259 17.0721 11.6594 17.6808 11.6594C18.5328 11.6594 19.2234 10.964 19.2234 10.1062C19.2234 9.24843 18.5328 8.55304 17.6808 8.55304C16.8288 8.55304 16.1382 9.24843 16.1382 10.1062C16.1382 10.6719 16.1405 11.3222 15.7393 11.7182L15.2205 12.2304C14.8267 12.6192 14.1979 12.6154 13.6465 12.6154C12.7945 12.6154 12.1038 13.3107 12.1038 14.1686C12.1038 15.0264 12.7945 15.7218 13.6465 15.7218C14.4984 15.7218 15.1891 15.0264 15.1891 14.1686C15.1891 13.5468 15.1577 12.8149 15.5987 12.3795L15.9273 12.055ZM9.61175 11.6594C9.003 11.6594 8.29283 11.6259 7.85823 12.055L7.52945 12.3796C7.08853 12.8149 7.11989 13.5468 7.11989 14.1686C7.11989 14.7718 7.09545 15.4744 7.5191 15.901L7.89091 16.2753C8.31462 16.7019 9.01251 16.6773 9.61175 16.6773C10.4637 16.6773 11.1543 17.3727 11.1543 18.2305C11.1543 19.0883 10.4637 19.7837 9.61175 19.7837C8.75976 19.7837 8.06909 19.0883 8.06909 18.2305C8.06909 17.6551 8.0792 16.9925 7.67506 16.5856L7.21114 16.1185C6.807 15.7115 6.14884 15.7218 5.57724 15.7218C4.72527 15.7218 4.03461 15.0264 4.03461 14.1686C4.03461 13.3107 4.72527 12.6154 5.57724 12.6154C6.12879 12.6154 6.75758 12.6192 7.15137 12.2304L7.67018 11.7182C8.07138 11.3222 8.06909 10.6719 8.06909 10.1062C8.06909 9.24843 8.75976 8.55304 9.61175 8.55304C10.4637 8.55304 11.1543 9.24843 11.1543 10.1062C11.1543 10.964 10.4637 11.6594 9.61175 11.6594ZM14.6601 1.99425C14.6601 2.55099 14.2118 3.00233 13.6589 3.00233C13.1059 3.00233 12.6576 2.55099 12.6576 1.99425C12.6576 1.4375 13.1059 0.986169 13.6589 0.986169C14.2118 0.986169 14.6601 1.4375 14.6601 1.99425ZM9.61175 15.7218C10.4637 15.7218 11.1543 15.0264 11.1543 14.1686C11.1543 13.3107 10.4637 12.6154 9.61175 12.6154C8.75976 12.6154 8.06909 13.3107 8.06909 14.1686C8.06909 15.0264 8.75976 15.7218 9.61175 15.7218ZM5.50697 2.92002C6.04404 2.92002 6.47942 2.48165 6.47942 1.94091C6.47942 1.40016 6.04404 0.961793 5.50697 0.961793C4.9699 0.961793 4.53451 1.40016 4.53451 1.94091C4.53451 2.48165 4.9699 2.92002 5.50697 2.92002ZM2.55613 6.05647C2.55613 6.61322 2.10786 7.06455 1.5549 7.06455C1.00194 7.06455 0.553671 6.61322 0.553671 6.05647C0.553671 5.49972 1.00194 5.04839 1.5549 5.04839C2.10786 5.04839 2.55613 5.49972 2.55613 6.05647ZM6.47942 18.2717C6.47942 18.8124 6.04404 19.2508 5.50697 19.2508C4.9699 19.2508 4.53451 18.8124 4.53451 18.2717C4.53451 17.7309 4.9699 17.2925 5.50697 17.2925C6.04404 17.2925 6.47942 17.7309 6.47942 18.2717ZM13.6589 19.2511C14.2118 19.2511 14.6601 18.7998 14.6601 18.243C14.6601 17.6862 14.2118 17.2349 13.6589 17.2349C13.1059 17.2349 12.6576 17.6862 12.6576 18.243C12.6576 18.7998 13.1059 19.2511 13.6589 19.2511ZM2.50701 14.0799C2.50701 14.6042 2.08487 15.0292 1.56412 15.0292C1.04338 15.0292 0.621222 14.6042 0.621222 14.0799C0.621222 13.5556 1.04338 13.1306 1.56412 13.1306C2.08487 13.1306 2.50701 13.5556 2.50701 14.0799ZM17.7216 15.2317C18.3214 15.2317 18.8075 14.7422 18.8075 14.1384C18.8075 13.5346 18.3214 13.0452 17.7216 13.0452C17.1219 13.0452 16.6358 13.5346 16.6358 14.1384C16.6358 14.7422 17.1219 15.2317 17.7216 15.2317ZM17.6215 7.02952C18.2009 7.02952 18.6706 6.55661 18.6706 5.97322C18.6706 5.38985 18.2009 4.91694 17.6215 4.91694C17.0421 4.91694 16.5724 5.38985 16.5724 5.97322C16.5724 6.55661 17.0421 7.02952 17.6215 7.02952Z" fill="white"/>
<path d="M23.215 15.3954V13.7647H26.8863C27.2174 13.7647 27.4765 13.6632 27.6637 13.4603C27.8653 13.2573 27.966 12.9964 27.966 12.6775V0.46875H29.6937V12.895C29.6937 13.6777 29.4705 14.2937 29.0242 14.7431C28.5924 15.178 27.9516 15.3954 27.1022 15.3954H23.215Z" fill="white"/>
<path d="M56.8171 15.6127C55.8525 15.6127 54.9743 15.3736 54.1824 14.8952C53.3906 14.4168 52.7643 13.75 52.3036 12.8948C51.8573 12.0396 51.6342 11.0611 51.6342 9.95943C51.6342 8.85779 51.8573 7.87931 52.3036 7.0241C52.7643 6.16883 53.3906 5.50204 54.1824 5.02369C54.9743 4.54533 55.8525 4.30615 56.8171 4.30615C57.7817 4.30615 58.6599 4.54533 59.4518 5.02369C60.2436 5.50204 60.8629 6.16883 61.309 7.0241C61.7695 7.87931 62 8.85779 62 9.95943C62 11.0611 61.7695 12.0396 61.309 12.8948C60.8629 13.75 60.2436 14.4168 59.4518 14.8952C58.6599 15.3736 57.7817 15.6127 56.8171 15.6127ZM56.8171 14.0907C57.4649 14.0907 58.0624 13.924 58.6095 13.5906C59.1566 13.2427 59.5885 12.7571 59.9053 12.1338C60.2219 11.496 60.3802 10.7712 60.3802 9.95943C60.3802 9.14767 60.2219 8.43016 59.9053 7.80682C59.5885 7.16901 59.1566 6.68343 58.6095 6.35004C58.0624 6.00214 57.4649 5.82819 56.8171 5.82819C56.1692 5.82819 55.5718 6.00214 55.0247 6.35004C54.4776 6.68343 54.0457 7.16901 53.7289 7.80682C53.4122 8.43016 53.2538 9.14767 53.2538 9.95943C53.2538 10.7712 53.4122 11.496 53.7289 12.1338C54.0457 12.7571 54.4776 13.2427 55.0247 13.5906C55.5718 13.924 56.1692 14.0907 56.8171 14.0907Z" fill="white"/>
<path d="M49.9752 4.52344H51.7029L46.8439 18.2218C46.6567 18.7436 46.4119 19.1277 46.1096 19.3742C45.8073 19.6206 45.3682 19.7438 44.7923 19.7438H42.6327V18.2218H44.6843C45.0442 18.2218 45.2962 18.0043 45.4402 17.5695L45.8721 16.2649L41.4449 4.52344H43.1726L46.5199 13.5469H46.9518L49.9752 4.52344Z" fill="white"/>
<path d="M35.26 15.6126C34.4394 15.6126 33.698 15.4241 33.0357 15.0472C32.3879 14.6559 31.8768 14.1123 31.5024 13.4165C31.1281 12.7207 30.9409 11.9307 30.9409 11.0465V4.52344H32.5606V11.0465C32.5606 11.6118 32.6902 12.1264 32.9493 12.5902C33.2085 13.0541 33.5612 13.4237 34.0075 13.6991C34.4538 13.96 34.9433 14.0905 35.476 14.0905C36.0375 14.0905 36.5558 13.9528 37.0309 13.6774C37.5204 13.3875 37.9019 13.0106 38.1755 12.5468C38.4634 12.0829 38.6074 11.5828 38.6074 11.0465V4.52344H40.2271V15.3951H38.8233L38.6074 14.1993H38.4994C38.1971 14.5762 37.758 14.9096 37.1821 15.1994C36.6206 15.4748 35.9799 15.6126 35.26 15.6126Z" fill="white"/>
</g>
</g>
<defs>
<clipPath id="clip0_10_1792">
<rect width="62" height="20" fill="white"/>
</clipPath>
</defs>
</svg>
